<svg xmlns="http://www.w3.org/2000/svg" xmlns:xlink="http://www.w3.org/1999/xlink" version="1.1" id="Layer_1" x="0px" y="0px" viewBox="0 0 924 146.3" style="enable-background:new 0 0 924 146.3;" xml:space="preserve">
<style type="text/css">
	.st0{fill:#F9D83C;}
	.st1{fill:#FFFFFF;}
</style>
<g>
	<g>
		<path class="st0" d="M121.3,28.2L77.7,3.1C70.6-1,61.9-1,54.9,3.1L43.5,9.7V39v6.7v27.5c0,8.1,4.3,15.7,11.4,19.8    c3.5,2,7.5,3.1,11.4,3.1s7.9-1,11.4-3.1l0,0c7.1-4.1,11.4-11.6,11.4-19.8c0-8.1-4.3-15.7-11.4-19.8l0,0c-3.5-2-7.5-3.1-11.4-3.1    V36c3.9,0,7.9,1,11.4,3.1l12.4,7.2c7.1,4.1,11.4,11.6,11.4,19.8v14.3c0,8.1-4.3,15.7-11.4,19.8l-12.4,7.2c-3.5,2-7.5,3.1-11.4,3.1    s-7.9-1-11.4-3.1l-12.4-7.2c-7.1-4.1-11.4-11.6-11.4-19.8v-7.2V66V47.5V16.8L11.4,28.2C4.3,32.3,0,39.8,0,48v50.3    c0,8.1,4.3,15.7,11.4,19.8L55,143.2c7.1,4.1,15.8,4.1,22.8,0l43.6-25.1c7.1-4.1,11.4-11.6,11.4-19.8V48    C132.7,39.8,128.3,32.3,121.3,28.2z M52.3,55.2c-1.3,1-2.4,2.1-3.4,3.3v-16l3.4-2V55.2z M61,51c-1.2,0.3-2.3,0.6-3.4,1.1V37.7    c1.1-0.5,2.3-0.8,3.4-1.1V51z"/>
	</g>
	<g>
		<path class="st1" d="M205,90.4c0,3.7-0.9,6.7-2.8,9.2c-1.9,2.5-4.4,4.3-7.6,5.6c-3.2,1.3-6.7,1.9-10.4,1.9h-31.3V42.3h34.7    c3,0,5.7,0.8,7.9,2.4c2.2,1.6,3.9,3.7,5.1,6.2c1.2,2.5,1.8,5.2,1.8,7.9c0,3.1-0.8,6.1-2.4,8.9c-1.6,2.8-3.9,4.9-6.9,6.2    c3.7,1.1,6.6,3.1,8.8,5.9C203.9,82.7,205,86.2,205,90.4z M165.4,53.1v16.3h16.8c1.4,0,2.7-0.3,3.8-1c1.2-0.7,2.1-1.6,2.8-2.8    c0.7-1.2,1-2.7,1-4.4c0-1.6-0.3-3.1-1-4.3c-0.6-1.2-1.5-2.2-2.6-2.8c-1.1-0.7-2.3-1-3.6-1C182.6,53.1,165.4,53.1,165.4,53.1z     M192.3,88c0-1.6-0.3-3.1-1-4.4s-1.6-2.3-2.7-3.1c-1.1-0.8-2.4-1.1-3.9-1.1h-19.3v17.1h18.7c1.5,0,2.9-0.4,4.2-1.1    c1.2-0.8,2.2-1.8,3-3.1C192,90.9,192.3,89.5,192.3,88z"/>
		<path class="st1" d="M235.9,108c-3.8,0-7.3-0.6-10.4-1.9c-3.1-1.3-5.7-3.1-7.9-5.3c-2.2-2.3-3.9-4.8-5.1-7.8    c-1.2-2.9-1.8-6-1.8-9.2c0-4.5,1-8.6,3.1-12.4c2-3.7,5-6.7,8.8-9c3.8-2.3,8.3-3.4,13.5-3.4s9.7,1.1,13.4,3.4s6.6,5.2,8.5,8.9    c2,3.7,3,7.7,3,12c0,0.7,0,1.5-0.1,2.2c-0.1,0.8-0.1,1.4-0.2,1.9h-37c0.2,2.4,1,4.5,2.1,6.2c1.2,1.8,2.7,3.1,4.6,4.1    c1.9,0.9,3.8,1.4,6,1.4c2.4,0,4.7-0.6,6.9-1.8c2.2-1.2,3.6-2.8,4.4-4.7l10.5,2.9c-1.2,2.4-2.8,4.6-5,6.5s-4.7,3.4-7.6,4.4    C242.6,107.5,239.4,108,235.9,108z M223.4,79.6h25c-0.2-2.4-0.9-4.4-2.1-6.2c-1.1-1.8-2.6-3.1-4.4-4.1c-1.8-1-3.9-1.5-6.1-1.5    c-2.2,0-4.2,0.5-6,1.5s-3.3,2.3-4.4,4.1S223.6,77.2,223.4,79.6z"/>
		<path class="st1" d="M290.5,108c-3.8,0-7.3-0.6-10.4-1.9s-5.7-3.1-7.9-5.3c-2.2-2.3-3.9-4.8-5.1-7.8c-1.2-2.9-1.8-6-1.8-9.2    c0-4.5,1-8.6,3.1-12.4c2-3.7,5-6.7,8.8-9c3.8-2.3,8.3-3.4,13.5-3.4s9.7,1.1,13.4,3.4c3.7,2.3,6.6,5.2,8.5,8.9c2,3.7,3,7.7,3,12    c0,0.7,0,1.5-0.1,2.2c-0.1,0.8-0.1,1.4-0.2,1.9h-37c0.2,2.4,1,4.5,2.1,6.2c1.2,1.8,2.7,3.1,4.6,4.1c1.9,0.9,3.8,1.4,6,1.4    c2.4,0,4.7-0.6,6.9-1.8c2.2-1.2,3.6-2.8,4.4-4.7l10.5,2.9c-1.2,2.4-2.8,4.6-5,6.5s-4.7,3.4-7.6,4.4C297.3,107.5,294,108,290.5,108    z M278,79.6h25c-0.2-2.4-0.9-4.4-2.1-6.2c-1.1-1.8-2.6-3.1-4.4-4.1s-3.9-1.5-6.1-1.5s-4.2,0.5-6,1.5s-3.3,2.3-4.4,4.1    S278.3,77.2,278,79.6z"/>
		<path class="st1" d="M355.7,107.1l-14-20.5l-6.5,6.3V107H323V40.5h12.2V81l19.3-21.3h13l-17.8,20.1l19.1,27.3    C368.8,107.1,355.7,107.1,355.7,107.1z"/>
		<path class="st1" d="M393.6,108c-3.8,0-7.3-0.6-10.4-1.9s-5.7-3.1-7.9-5.3c-2.2-2.3-3.9-4.8-5.1-7.8c-1.2-2.9-1.8-6-1.8-9.2    c0-4.5,1-8.6,3.1-12.4c2-3.7,5-6.7,8.8-9c3.8-2.3,8.3-3.4,13.5-3.4s9.7,1.1,13.4,3.4c3.7,2.3,6.6,5.2,8.5,8.9c2,3.7,3,7.7,3,12    c0,0.7,0,1.5-0.1,2.2c-0.1,0.8-0.1,1.4-0.2,1.9h-37c0.2,2.4,1,4.5,2.1,6.2c1.2,1.8,2.7,3.1,4.6,4.1c1.9,0.9,3.8,1.4,6,1.4    c2.4,0,4.7-0.6,6.9-1.8c2.2-1.2,3.6-2.8,4.4-4.7l10.5,2.9c-1.2,2.4-2.8,4.6-5,6.5s-4.7,3.4-7.6,4.4    C400.4,107.5,397.2,108,393.6,108z M381.1,79.6h25c-0.2-2.4-0.9-4.4-2.1-6.2c-1.1-1.8-2.6-3.1-4.4-4.1s-3.9-1.5-6.1-1.5    s-4.2,0.5-6,1.5s-3.3,2.3-4.4,4.1C382.1,75.2,381.4,77.2,381.1,79.6z"/>
		<path class="st1" d="M448.3,108c-3.8,0-7.3-0.6-10.4-1.9s-5.7-3.1-7.9-5.3c-2.2-2.3-3.9-4.8-5.1-7.8c-1.2-2.9-1.8-6-1.8-9.2    c0-4.5,1-8.6,3.1-12.4c2-3.7,5-6.7,8.8-9c3.8-2.3,8.3-3.4,13.5-3.4s9.7,1.1,13.4,3.4c3.7,2.3,6.6,5.2,8.5,8.9c2,3.7,3,7.7,3,12    c0,0.7,0,1.5-0.1,2.2c-0.1,0.8-0.1,1.4-0.2,1.9h-37c0.2,2.4,1,4.5,2.1,6.2c1.2,1.8,2.7,3.1,4.6,4.1c1.9,0.9,3.8,1.4,6,1.4    c2.4,0,4.7-0.6,6.9-1.8c2.2-1.2,3.6-2.8,4.4-4.7l10.5,2.9c-1.2,2.4-2.8,4.6-5,6.5s-4.7,3.4-7.6,4.4C455,107.5,451.8,108,448.3,108    z M435.8,79.6h25c-0.2-2.4-0.9-4.4-2.1-6.2c-1.1-1.8-2.6-3.1-4.4-4.1s-3.9-1.5-6.1-1.5s-4.2,0.5-6,1.5s-3.3,2.3-4.4,4.1    C436.7,75.2,436,77.2,435.8,79.6z"/>
		<path class="st1" d="M509.4,108c-3.7,0-7-0.8-9.8-2.5s-5-3.9-6.6-6.7v27.7h-12.2V59.7h10.7v8.2c1.8-2.8,4.1-4.9,6.9-6.5    s6-2.4,9.6-2.4c3.2,0,6.2,0.6,8.9,1.9c2.7,1.3,5.1,3,7.1,5.3s3.6,4.8,4.7,7.8c1.1,2.9,1.7,6.1,1.7,9.4c0,4.6-0.9,8.7-2.7,12.5    c-1.8,3.7-4.3,6.7-7.4,8.9C517.1,106.9,513.5,108,509.4,108z M505.3,97.6c1.9,0,3.6-0.4,5.1-1.2c1.5-0.8,2.8-1.8,4-3.2    c1.1-1.3,2-2.9,2.6-4.6s0.9-3.5,0.9-5.3c0-2-0.3-3.8-1-5.5c-0.6-1.7-1.6-3.1-2.8-4.4s-2.6-2.3-4.2-3s-3.4-1.1-5.2-1.1    c-1.2,0-2.3,0.2-3.5,0.6s-2.3,0.9-3.4,1.6s-2.1,1.5-2.9,2.5s-1.4,2-1.8,3.1v11.1c0.7,1.7,1.7,3.3,3,4.7c1.2,1.4,2.7,2.5,4.3,3.3    C501.9,97.2,503.6,97.6,505.3,97.6z"/>
		<path class="st1" d="M560.8,108c-3.8,0-7.3-0.6-10.4-1.9c-3.1-1.3-5.7-3.1-7.9-5.3c-2.2-2.3-3.9-4.8-5.1-7.8    c-1.2-2.9-1.8-6-1.8-9.2c0-4.5,1-8.6,3.1-12.4c2-3.7,5-6.7,8.8-9c3.8-2.3,8.3-3.4,13.5-3.4s9.7,1.1,13.4,3.4s6.6,5.2,8.5,8.9    c2,3.7,3,7.7,3,12c0,0.7,0,1.5-0.1,2.2c-0.1,0.8-0.1,1.4-0.2,1.9h-37c0.2,2.4,1,4.5,2.1,6.2c1.2,1.8,2.7,3.1,4.6,4.1    c1.9,0.9,3.8,1.4,6,1.4c2.4,0,4.7-0.6,6.9-1.8c2.2-1.2,3.6-2.8,4.4-4.7l10.5,2.9c-1.2,2.4-2.8,4.6-5,6.5s-4.7,3.4-7.6,4.4    C567.6,107.5,564.3,108,560.8,108z M548.3,79.6h25c-0.2-2.4-0.9-4.4-2.1-6.2c-1.1-1.8-2.6-3.1-4.4-4.1c-1.8-1-3.9-1.5-6.1-1.5    c-2.2,0-4.2,0.5-6,1.5s-3.3,2.3-4.4,4.1C549.2,75.2,548.5,77.2,548.3,79.6z"/>
		<path class="st1" d="M621.8,69.9c-3.7,0-7,0.7-9.9,2.1s-5,3.5-6.3,6.2v28.9h-12.2V59.7h11.2v9.8c1.7-3.3,3.9-5.9,6.5-7.8    c2.6-1.9,5.4-2.9,8.3-3.1c0.7,0,1.2,0,1.6,0c0.4,0,0.7,0,0.9,0.1L621.8,69.9L621.8,69.9z"/>
		<path class="st1" d="M688.3,59.3c-0.4-0.4-1.2-1-2.3-1.7s-2.5-1.4-4.1-2.1c-1.6-0.7-3.4-1.3-5.2-1.8c-1.9-0.5-3.8-0.8-5.7-0.8    c-3.4,0-6,0.6-7.7,1.9c-1.7,1.3-2.6,3.1-2.6,5.4c0,1.8,0.5,3.1,1.6,4.2c1.1,1,2.7,1.9,4.9,2.6s4.9,1.5,8.2,2.4    c4.3,1,8,2.3,11.1,3.8s5.5,3.4,7.2,5.8s2.5,5.6,2.5,9.5c0,3.5-0.6,6.4-1.9,8.9c-1.3,2.5-3,4.4-5.3,5.9s-4.8,2.6-7.7,3.3    c-2.9,0.7-5.9,1-9.1,1c-3.2,0-6.4-0.3-9.7-1c-3.2-0.7-6.3-1.6-9.3-2.9c-3-1.2-5.7-2.8-8.2-4.5l5.6-10.9c0.5,0.5,1.5,1.3,2.9,2.1    c1.4,0.9,3.1,1.8,5.1,2.6c2,0.9,4.2,1.6,6.6,2.2c2.4,0.6,4.8,0.9,7.2,0.9c3.4,0,6-0.6,7.8-1.7s2.6-2.8,2.6-4.9    c0-1.9-0.7-3.5-2.1-4.5c-1.4-1.1-3.3-2-5.8-2.9c-2.5-0.8-5.4-1.7-8.9-2.7c-4.1-1.2-7.5-2.4-10.2-3.9c-2.7-1.4-4.8-3.2-6.1-5.4    c-1.3-2.2-2-4.9-2-8.2c0-4.4,1-8.1,3.1-11.1s4.9-5.3,8.5-6.8s7.6-2.3,12-2.3c3,0,5.9,0.3,8.6,1c2.7,0.7,5.2,1.6,7.6,2.6    s4.5,2.3,6.4,3.6L688.3,59.3z"/>
		<path class="st1" d="M732,104.7c-1,0.4-2.3,0.9-3.7,1.5c-1.5,0.5-3,1-4.7,1.3s-3.4,0.5-5.1,0.5c-2.3,0-4.3-0.4-6.2-1.2    c-1.9-0.8-3.4-2-4.5-3.8c-1.1-1.7-1.7-4-1.7-6.7V69.1h-6.3v-9.4h6.3V44.2h12.2v15.5h10v9.4h-10v23.1c0.1,1.6,0.5,2.8,1.4,3.5    s1.9,1.1,3.2,1.1s2.5-0.2,3.7-0.6s2.2-0.8,2.9-1.1L732,104.7z"/>
		<path class="st1" d="M737.9,89.4V59.7h12.2v27c0,3.6,0.7,6.3,2,8.2c1.3,1.8,3.3,2.7,5.9,2.7c1.6,0,3.1-0.3,4.7-0.9    c1.6-0.6,3-1.6,4.3-2.8c1.3-1.3,2.4-2.8,3.3-4.7V59.7h12.2v33.7c0,1.3,0.2,2.2,0.7,2.7s1.2,0.9,2.2,1v9.9    c-1.2,0.2-2.2,0.3-3.1,0.4c-0.8,0.1-1.6,0.1-2.2,0.1c-2.2,0-4-0.5-5.3-1.5c-1.4-1-2.2-2.4-2.4-4.1l-0.3-3.8    c-2.1,3.2-4.9,5.6-8.2,7.3c-3.3,1.7-7,2.5-11,2.5c-4.9,0-8.7-1.6-11.2-4.7C739.2,100.1,737.9,95.5,737.9,89.4z"/>
		<path class="st1" d="M791.9,83.5c0-4.6,0.9-8.7,2.7-12.4c1.8-3.7,4.3-6.6,7.6-8.8c3.2-2.2,6.9-3.2,11-3.2c3.5,0,6.7,0.9,9.5,2.6    c2.8,1.7,5,3.9,6.6,6.6V40.5h12.2v52.9c0,1.3,0.2,2.2,0.6,2.7c0.4,0.5,1.2,0.9,2.2,1v9.9c-2.1,0.4-3.9,0.6-5.2,0.6    c-2.2,0-4-0.5-5.4-1.6s-2.2-2.5-2.4-4.3l-0.2-3c-1.8,3-4.2,5.3-7.2,6.8c-3,1.6-6.2,2.4-9.4,2.4c-3.3,0-6.3-0.6-9.1-1.9    s-5.2-3-7.2-5.2s-3.6-4.8-4.7-7.8C792.4,90.1,791.9,86.9,791.9,83.5z M829.4,89.7V78.5c-0.6-1.7-1.6-3.3-2.9-4.7    c-1.3-1.4-2.8-2.5-4.5-3.3c-1.6-0.8-3.3-1.2-4.9-1.2c-1.9,0-3.6,0.4-5.1,1.2c-1.5,0.8-2.8,1.8-4,3.1c-1.1,1.3-2,2.8-2.6,4.6    c-0.6,1.7-0.9,3.6-0.9,5.5s0.3,3.7,1,5.4c0.6,1.7,1.6,3.2,2.8,4.4c1.2,1.3,2.6,2.2,4.2,3c1.6,0.7,3.4,1.1,5.2,1.1    c1.2,0,2.3-0.2,3.5-0.6s2.3-0.9,3.4-1.6c1.1-0.7,2-1.5,2.8-2.5C828.3,91.9,828.9,90.9,829.4,89.7z"/>
		<path class="st1" d="M853.6,52.6V40.5h12.2v12.1H853.6z M853.6,107.1V59.3h12.2v47.8H853.6z"/>
		<path class="st1" d="M899,108c-3.9,0-7.4-0.6-10.5-1.9s-5.7-3.1-7.9-5.4s-3.8-4.9-5-7.9c-1.2-2.9-1.7-6-1.7-9.3s0.6-6.4,1.7-9.4    c1.2-2.9,2.8-5.6,5-7.9c2.2-2.3,4.8-4.1,7.9-5.4c3.1-1.3,6.6-1.9,10.5-1.9s7.4,0.6,10.4,1.9c3.1,1.3,5.7,3.1,7.9,5.4    s3.8,4.9,5,7.9c1.1,2.9,1.7,6.1,1.7,9.4c0,3.2-0.6,6.3-1.7,9.3c-1.1,2.9-2.8,5.6-4.9,7.9c-2.2,2.3-4.8,4.1-7.9,5.4    C906.4,107.4,902.9,108,899,108z M886.5,83.5c0,2.7,0.5,5.2,1.6,7.3c1.1,2.1,2.6,3.8,4.5,5s4,1.8,6.4,1.8c2.3,0,4.4-0.6,6.3-1.8    c1.9-1.2,3.4-2.9,4.5-5s1.7-4.5,1.7-7.3c0-2.7-0.6-5.1-1.7-7.3c-1.1-2.1-2.6-3.8-4.5-5s-4-1.8-6.3-1.8c-2.4,0-4.5,0.6-6.4,1.8    c-1.9,1.2-3.4,2.9-4.5,5C887,78.4,886.5,80.8,886.5,83.5z"/>
	</g>
</g>
</svg>
